<mxfile host="65bd71144e">
    <diagram id="txQ53HRms5WMzCW3pvXp" name="Page-1">
        <mxGraphModel dx="812" dy="471" grid="1" gridSize="10" guides="1" tooltips="1" connect="1" arrows="1" fold="1" page="1" pageScale="1" pageWidth="827" pageHeight="1169" math="0" shadow="0">
            <root>
                <mxCell id="0"/>
                <mxCell id="1" parent="0"/>
                <mxCell id="3" value="MODULES ::&lt;br&gt;&lt;br&gt;&amp;nbsp;-- Diretorio por Modulo ex: Dentro de Modulo ficam todos os modulos ..neste esta os Modulo Carro as outras Entidades serao modulos aqui dentro tbm com as sub pastas." style="text;html=1;strokeColor=default;fillColor=none;align=left;verticalAlign=top;whiteSpace=wrap;rounded=0;fontStyle=1" vertex="1" parent="1">
                    <mxGeometry x="40" width="760" height="360" as="geometry"/>
                </mxCell>
                <mxCell id="7" value="Carro -- MODULO DA ENTIDADE CARRO" style="text;html=1;strokeColor=default;fillColor=none;align=left;verticalAlign=top;whiteSpace=wrap;rounded=0;" vertex="1" parent="1">
                    <mxGeometry x="70" y="80" width="690" height="240" as="geometry"/>
                </mxCell>
                <mxCell id="15" value="servico" style="text;html=1;strokeColor=default;fillColor=none;align=left;verticalAlign=top;whiteSpace=wrap;rounded=0;" vertex="1" parent="1">
                    <mxGeometry x="540" y="120" width="210" height="160" as="geometry"/>
                </mxCell>
                <mxCell id="11" value="repositorio" style="text;html=1;strokeColor=default;fillColor=none;align=left;verticalAlign=top;whiteSpace=wrap;rounded=0;" vertex="1" parent="1">
                    <mxGeometry x="320" y="120" width="180" height="160" as="geometry"/>
                </mxCell>
                <mxCell id="4" value="model" style="text;html=1;strokeColor=default;fillColor=none;align=left;verticalAlign=top;whiteSpace=wrap;rounded=0;" vertex="1" parent="1">
                    <mxGeometry x="100" y="120" width="180" height="160" as="geometry"/>
                </mxCell>
                <mxCell id="8" value="Categoria" style="text;html=1;strokeColor=default;fillColor=none;align=left;verticalAlign=top;whiteSpace=wrap;rounded=0;" vertex="1" parent="1">
                    <mxGeometry x="140" y="155" width="100" height="30" as="geometry"/>
                </mxCell>
                <mxCell id="9" value="Especificacao" style="text;html=1;strokeColor=default;fillColor=none;align=left;verticalAlign=top;whiteSpace=wrap;rounded=0;" vertex="1" parent="1">
                    <mxGeometry x="140" y="195" width="100" height="30" as="geometry"/>
                </mxCell>
                <mxCell id="10" value="ClassExternaRepo" style="text;html=1;strokeColor=default;fillColor=none;align=left;verticalAlign=top;whiteSpace=wrap;rounded=0;" vertex="1" parent="1">
                    <mxGeometry x="360" y="195" width="120" height="25" as="geometry"/>
                </mxCell>
                <mxCell id="12" value="ContratoRepo" style="text;html=1;strokeColor=default;fillColor=none;align=left;verticalAlign=top;whiteSpace=wrap;rounded=0;" vertex="1" parent="1">
                    <mxGeometry x="360" y="155" width="120" height="30" as="geometry"/>
                </mxCell>
                <mxCell id="13" value="CasoDeUsoFAZALGO_Service" style="text;html=1;strokeColor=default;fillColor=none;align=left;verticalAlign=top;whiteSpace=wrap;rounded=0;" vertex="1" parent="1">
                    <mxGeometry x="560" y="155" width="170" height="30" as="geometry"/>
                </mxCell>
                <mxCell id="16" value="ClassInternaRepo" style="text;html=1;strokeColor=default;fillColor=none;align=left;verticalAlign=top;whiteSpace=wrap;rounded=0;" vertex="1" parent="1">
                    <mxGeometry x="360" y="230" width="120" height="30" as="geometry"/>
                </mxCell>
            </root>
        </mxGraphModel>
    </diagram>
</mxfile>